<svg xmlns="http://www.w3.org/2000/svg" viewBox="0.00 0.00 420.00 420.00" height="86.40" width="86.40"><g class="nc-int-icon js-nc-int-icon nc-int-icon-scale"><g class="nc-int-icon-a"><g stroke-linecap="round" transform="translate(17.00, -4.00)" id="レイヤー_3">
<path d="M28.00,34.00 Q192.77,33.81 358.00,34.00 Q372.77,33.81 373.00,49.00 Q372.77,213.81 373.00,379.00 Q372.77,393.81 358.00,394.00 Q192.77,393.81 28.00,394.00 Q12.77,393.81 13.00,379.00 Q12.77,213.81 13.00,49.00 Q12.77,33.81 28.00,34.00 Z" fill="none" stroke="rgb(0, 0, 0)" stroke-width="60.00" stroke-opacity="1.00" stroke-linejoin="round"></path>
</g><g stroke-linecap="round" id="レイヤー_1">
<path d="M262.85,263.96 Q209.82,210.93 156.79,157.89 Q146.18,147.29 146.53,146.93 Q146.53,146.93 146.53,146.93 Q146.89,146.58 157.49,157.19 Q210.53,210.22 263.56,263.25 Q274.17,273.86 273.81,274.21 Q273.81,274.21 273.81,274.21 Q273.46,274.57 262.85,263.96 Z" fill="none" stroke="rgb(0, 0, 0)" stroke-width="40.00" stroke-opacity="1.00" stroke-linejoin="round"></path>
<path d="M157.03,263.65 Q210.07,210.62 263.10,157.58 Q273.71,146.98 274.06,147.33 Q274.06,147.33 274.06,147.33 Q274.41,147.68 263.81,158.29 Q210.77,211.32 157.74,264.36 Q147.13,274.96 146.78,274.61 Q146.78,274.61 146.78,274.61 Q146.43,274.26 157.03,263.65 Z" fill="none" stroke="rgb(0, 0, 0)" stroke-width="40.00" stroke-opacity="1.00" stroke-linejoin="round"></path>
</g></g><g class="nc-int-icon-b"><g stroke-linecap="round" transform="translate(17.00, -4.00)" id="レイヤー_3">
<path d="M28.00,34.00 Q192.77,33.81 358.00,34.00 Q372.77,33.81 373.00,49.00 Q372.77,213.81 373.00,379.00 Q372.77,393.81 358.00,394.00 Q192.77,393.81 28.00,394.00 Q12.77,393.81 13.00,379.00 Q12.77,213.81 13.00,49.00 Q12.77,33.81 28.00,34.00 Z" fill="none" stroke="rgb(0, 0, 0)" stroke-width="60.00" stroke-opacity="1.00" stroke-linejoin="round"></path>
</g><g stroke-linecap="round" transform="translate(-34.00, -32.00)" id="レイヤー_1"></g><g stroke-linecap="round" transform="translate(-34.00, 67.00)" id="レイヤー_1_のコピー_5"></g><g stroke-linecap="round" transform="translate(-53.00, 153.00)" id="レイヤー_1_のコピー_6">
<path d="M187.00,-33.00 Q262.24,-33.27 337.00,-33.00 Q352.24,-33.27 352.00,-33.00 Q352.24,-32.77 352.00,-33.00 Q352.24,-32.27 337.00,-32.00 Q262.24,-32.27 187.00,-32.00 Q172.24,-32.27 172.00,-33.00 Q172.24,-32.77 172.00,-33.00 Q172.24,-33.27 187.00,-33.00 Z" fill="none" stroke="rgb(0, 0, 0)" stroke-width="40.00" stroke-opacity="1.00" stroke-linejoin="round"></path>
</g><g stroke-linecap="round" transform="translate(-52.00, 332.00)" id="レイヤー_1_のコピー_7">
<path d="M187.00,-33.00 Q262.24,-33.27 337.00,-33.00 Q352.24,-33.27 352.00,-33.00 Q352.24,-32.77 352.00,-33.00 Q352.24,-32.27 337.00,-32.00 Q262.24,-32.27 187.00,-32.00 Q172.24,-32.27 172.00,-33.00 Q172.24,-32.77 172.00,-33.00 Q172.24,-33.27 187.00,-33.00 Z" fill="none" stroke="rgb(0, 0, 0)" stroke-width="40.00" stroke-opacity="1.00" stroke-linejoin="round"></path>
</g><g stroke-linecap="round" transform="translate(-52.00, 243.00)" id="レイヤー_1_のコピー_8">
<path d="M187.00,-33.00 Q262.24,-33.27 337.00,-33.00 Q352.24,-33.27 352.00,-33.00 Q352.24,-32.77 352.00,-33.00 Q352.24,-32.27 337.00,-32.00 Q262.24,-32.27 187.00,-32.00 Q172.24,-32.27 172.00,-33.00 Q172.24,-32.77 172.00,-33.00 Q172.24,-33.27 187.00,-33.00 Z" fill="none" stroke="rgb(0, 0, 0)" stroke-width="40.00" stroke-opacity="1.00" stroke-linejoin="round"></path>
</g></g></g><script>function initIntIcon(i){if(i.classList.contains("js-nc-int-icon-loaded")) return;i.classList.add("js-nc-int-icon-loaded");i.closest("svg").addEventListener("click",function(n){i.classList.toggle("nc-int-icon-state-b")});};var intIcons=document.getElementsByClassName("js-nc-int-icon");for(var i=0;intIcons.length>i;i++){initIntIcon(intIcons[i]);}</script><style>.nc-int-icon-scale{--animation-duration:0.4s;}.nc-int-icon{position:relative;}.nc-int-icon-b{position: absolute;top: calc(50% - 0.5em);left: calc(50% - 0.5em);opacity: 0;}.nc-int-icon-a,.nc-int-icon-b{transform-origin:center center;}.nc-int-icon-scale .nc-int-icon-a,.nc-int-icon-scale .nc-int-icon-b{transition: opacity 0s calc(var(--animation-duration)/2), transform var(--animation-duration);}.nc-int-icon-scale .nc-int-icon-b{transform: scale(0.8);}.nc-int-icon-state-b .nc-int-icon-a{opacity: 0;}.nc-int-icon-state-b .nc-int-icon-b{opacity: 1;}.nc-int-icon-scale.nc-int-icon-state-b .nc-int-icon-a{transform: scale(0.8);}.nc-int-icon-scale.nc-int-icon-state-b .nc-int-icon-b{transform: scale(1);}</style></svg>