<?xml version="1.0" encoding="UTF-8" standalone="no"?>
<!DOCTYPE svg PUBLIC "-//W3C//DTD SVG 1.1//EN" "http://www.w3.org/Graphics/SVG/1.1/DTD/svg11.dtd">
<svg width="86.40" height="86.40" viewBox="0.00 0.00 420.00 420.00" xmlns="http://www.w3.org/2000/svg" xmlns:xlink="http://www.w3.org/1999/xlink">
<g stroke-linecap="round" transform="translate(17.00, -4.00)" id="レイヤー_3">
<path d="M28.00,34.00 Q192.77,33.81 358.00,34.00 Q372.77,33.81 373.00,49.00 Q372.77,213.81 373.00,379.00 Q372.77,393.81 358.00,394.00 Q192.77,393.81 28.00,394.00 Q12.77,393.81 13.00,379.00 Q12.77,213.81 13.00,49.00 Q12.77,33.81 28.00,34.00 Z" fill="none" stroke="rgb(0, 0, 0)" stroke-width="60.00" stroke-opacity="1.00" stroke-linejoin="round"/>
</g>
<g stroke-linecap="round" id="レイヤー_1">
<path d="M262.85,263.96 Q209.82,210.93 156.79,157.89 Q146.18,147.29 146.53,146.93 Q146.53,146.93 146.53,146.93 Q146.89,146.58 157.49,157.19 Q210.53,210.22 263.56,263.25 Q274.17,273.86 273.81,274.21 Q273.81,274.21 273.81,274.21 Q273.46,274.57 262.85,263.96 Z" fill="none" stroke="rgb(0, 0, 0)" stroke-width="40.00" stroke-opacity="1.00" stroke-linejoin="round"/>
<path d="M157.03,263.65 Q210.07,210.62 263.10,157.58 Q273.71,146.98 274.06,147.33 Q274.06,147.33 274.06,147.33 Q274.41,147.68 263.81,158.29 Q210.77,211.32 157.74,264.36 Q147.13,274.96 146.78,274.61 Q146.78,274.61 146.78,274.61 Q146.43,274.26 157.03,263.65 Z" fill="none" stroke="rgb(0, 0, 0)" stroke-width="40.00" stroke-opacity="1.00" stroke-linejoin="round"/>
</g>
</svg>
