<?xml version="1.0" encoding="UTF-8" standalone="no"?>
<!DOCTYPE svg PUBLIC "-//W3C//DTD SVG 1.1//EN" "http://www.w3.org/Graphics/SVG/1.1/DTD/svg11.dtd">
<svg width="86.40" height="86.40" viewBox="0.00 0.00 420.00 420.00" xmlns="http://www.w3.org/2000/svg" xmlns:xlink="http://www.w3.org/1999/xlink">
<g stroke-linecap="round" transform="translate(17.00, -4.00)" id="レイヤー_3">
<path d="M28.00,34.00 Q192.77,33.81 358.00,34.00 Q372.77,33.81 373.00,49.00 Q372.77,213.81 373.00,379.00 Q372.77,393.81 358.00,394.00 Q192.77,393.81 28.00,394.00 Q12.77,393.81 13.00,379.00 Q12.77,213.81 13.00,49.00 Q12.77,33.81 28.00,34.00 Z" fill="none" stroke="rgb(0, 0, 0)" stroke-width="60.00" stroke-opacity="1.00" stroke-linejoin="round"/>
</g>
<g stroke-linecap="round" transform="translate(-34.00, -32.00)" id="レイヤー_1"/>
<g stroke-linecap="round" transform="translate(-34.00, 67.00)" id="レイヤー_1_のコピー_5"/>
<g stroke-linecap="round" transform="translate(-53.00, 153.00)" id="レイヤー_1_のコピー_6">
<path d="M187.00,-33.00 Q262.24,-33.27 337.00,-33.00 Q352.24,-33.27 352.00,-33.00 Q352.24,-32.77 352.00,-33.00 Q352.24,-32.27 337.00,-32.00 Q262.24,-32.27 187.00,-32.00 Q172.24,-32.27 172.00,-33.00 Q172.24,-32.77 172.00,-33.00 Q172.24,-33.27 187.00,-33.00 Z" fill="none" stroke="rgb(0, 0, 0)" stroke-width="40.00" stroke-opacity="1.00" stroke-linejoin="round"/>
</g>
<g stroke-linecap="round" transform="translate(-52.00, 332.00)" id="レイヤー_1_のコピー_7">
<path d="M187.00,-33.00 Q262.24,-33.27 337.00,-33.00 Q352.24,-33.27 352.00,-33.00 Q352.24,-32.77 352.00,-33.00 Q352.24,-32.27 337.00,-32.00 Q262.24,-32.27 187.00,-32.00 Q172.24,-32.27 172.00,-33.00 Q172.24,-32.77 172.00,-33.00 Q172.24,-33.27 187.00,-33.00 Z" fill="none" stroke="rgb(0, 0, 0)" stroke-width="40.00" stroke-opacity="1.00" stroke-linejoin="round"/>
</g>
<g stroke-linecap="round" transform="translate(-52.00, 243.00)" id="レイヤー_1_のコピー_8">
<path d="M187.00,-33.00 Q262.24,-33.27 337.00,-33.00 Q352.24,-33.27 352.00,-33.00 Q352.24,-32.77 352.00,-33.00 Q352.24,-32.27 337.00,-32.00 Q262.24,-32.27 187.00,-32.00 Q172.24,-32.27 172.00,-33.00 Q172.24,-32.77 172.00,-33.00 Q172.24,-33.27 187.00,-33.00 Z" fill="none" stroke="rgb(0, 0, 0)" stroke-width="40.00" stroke-opacity="1.00" stroke-linejoin="round"/>
</g>
</svg>
